<?xml version="1.0" encoding="utf-8"?>
<!-- Generator: Adobe Illustrator 23.0.1, SVG Export Plug-In . SVG Version: 6.00 Build 0)  -->
<svg version="1.1" id="fc1f5aea-a643-4136-ad0f-c5867679d735"
	 xmlns="http://www.w3.org/2000/svg" xmlns:xlink="http://www.w3.org/1999/xlink" x="0px" y="0px" viewBox="0 0 1075.6 723"
	 style="enable-background:new 0 0 1075.6 723;" xml:space="preserve">
<style type="text/css">
	.st0{fill:#3F3D56;}
	.st1{fill:#FFB9B9;}
	.st2{fill:#2F2E41;}
	.st3{fill:#FF6584;}
	.st4{fill:#09BB00;}
	.st5{fill:#FFFFFF;}
	.st6{fill:#F2F2F2;}
</style>
<title>add_file</title>
<rect x="618" y="721" class="st0" width="457.5" height="2"/>
<rect x="583" y="692" class="st0" width="457.5" height="2"/>
<rect x="438" y="663" class="st0" width="457.5" height="2"/>
<path class="st0" d="M329.3,575.6c-2.8,0-5.6,0-8.3-0.1l0.1-2c4,0.1,8,0.2,12,0.1l0,2C331.7,575.6,330.5,575.6,329.3,575.6z
	 M345,575.1l-0.1-2c4-0.2,8-0.6,11.9-1l0.2,2C353,574.5,349,574.9,345,575.1L345,575.1z M308.9,574.8c-4-0.3-8-0.7-12-1.2l0.2-2
	c3.9,0.5,7.9,0.9,11.9,1.2L308.9,574.8z M368.9,572.6l-0.3-2c3.9-0.6,7.9-1.3,11.8-2.1l0.4,2C376.9,571.3,372.9,572,368.9,572.6z
	 M285,571.9c-3.9-0.7-7.9-1.4-11.8-2.3l0.4-2c3.9,0.8,7.8,1.6,11.7,2.3L285,571.9z M392.6,567.9l-0.5-1.9c3.9-1,7.7-2,11.5-3.1
	l0.6,1.9C400.4,565.9,396.4,566.9,392.6,567.9z M261.5,566.8c-3.9-1-7.8-2.2-11.6-3.4l0.6-1.9c3.8,1.2,7.6,2.3,11.5,3.3L261.5,566.8
	z M415.6,561.1l-0.7-1.9c3.7-1.3,7.5-2.7,11.2-4.2l0.7,1.9C423.2,558.3,419.4,559.7,415.6,561.1z M238.5,559.5
	c-3.8-1.4-7.5-2.9-11.2-4.4l0.8-1.8c3.7,1.5,7.4,3,11.1,4.4L238.5,559.5z M438,552.1l-0.8-1.8c3.6-1.6,7.2-3.4,10.7-5.2l0.9,1.8
	C445.2,548.7,441.6,550.5,438,552.1z M459.4,541.2l-1-1.7c3.4-2,6.9-4,10.2-6.1l1.1,1.7C466.3,537.1,462.8,539.2,459.4,541.2z
	 M479.7,528.3l-1.1-1.6c3.2-2.3,6.5-4.6,9.6-7.1l1.2,1.6C486.2,523.7,483,526,479.7,528.3z M174.9,525.5c-3.2-2.3-6.5-4.8-9.6-7.3
	l1.2-1.6c3.1,2.5,6.3,4.9,9.5,7.2L174.9,525.5z M498.8,513.7l-1.3-1.5c3-2.6,6-5.2,9-7.9l1.4,1.5
	C504.8,508.4,501.8,511.1,498.8,513.7z M156,510.5c-3-2.6-6-5.4-8.9-8.1l1.4-1.4c2.9,2.7,5.8,5.5,8.8,8.1L156,510.5z M516.4,497.3
	l-1.4-1.4c2.8-2.8,5.5-5.8,8.2-8.7l1.5,1.3C522,491.5,519.2,494.5,516.4,497.3L516.4,497.3z M138.7,493.8c-2.8-2.9-5.5-5.9-8.1-8.9
	l1.5-1.3c2.6,3,5.3,6,8,8.8L138.7,493.8z M532.6,479.4l-1.5-1.3c2.5-3.1,5-6.2,7.4-9.4l1.6,1.2C537.6,473.1,535.1,476.3,532.6,479.4
	z M122.9,475.6c-2.5-3.1-4.9-6.4-7.2-9.6l1.6-1.2c2.3,3.2,4.7,6.4,7.2,9.5L122.9,475.6z M547,460.1l-1.7-1.1c2.2-3.3,4.4-6.7,6.5-10
	l1.7,1C551.4,453.4,549.2,456.8,547,460.1z M108.8,456.1c-2.2-3.3-4.3-6.8-6.3-10.2l1.7-1c2,3.4,4.1,6.8,6.3,10.1L108.8,456.1z
	 M559.6,439.6l-1.8-1c1.9-3.5,3.8-7,5.5-10.6l1.8,0.9C563.4,432.5,561.5,436.1,559.6,439.6z M570.3,418l-1.8-0.8
	c1.6-3.6,3.1-7.4,4.5-11.1l1.9,0.7C573.4,410.6,571.9,414.3,570.3,418z M86.4,413.7c-1.5-3.7-3-7.4-4.4-11.2l1.9-0.7
	c1.4,3.7,2.8,7.5,4.3,11.1L86.4,413.7z M578.9,395.4l-1.9-0.6c1.2-3.8,2.4-7.6,3.5-11.4l1.9,0.5
	C581.4,387.8,580.2,391.7,578.9,395.4z M78.2,391.1c-1.2-3.8-2.3-7.7-3.3-11.6l1.9-0.5c1,3.8,2.1,7.7,3.3,11.5L78.2,391.1z
	 M585.4,372.3l-1.9-0.5c0.9-3.9,1.7-7.8,2.4-11.7l2,0.4C587.2,364.4,586.4,368.4,585.4,372.3z M72.1,367.8
	c-0.8-3.9-1.6-7.9-2.2-11.8l2-0.3c0.6,3.9,1.4,7.9,2.2,11.7L72.1,367.8z M589.8,348.6l-2-0.3c0.5-3.9,1-7.9,1.4-11.9l2,0.2
	C590.8,340.6,590.3,344.6,589.8,348.6L589.8,348.6z M68.1,344c-0.5-4-0.9-8-1.2-12l2-0.1c0.3,4,0.7,8,1.1,11.9L68.1,344z M592,324.6
	l-2-0.1c0.2-4,0.3-8,0.3-11.9h2C592.3,316.6,592.2,320.6,592,324.6L592,324.6z M66.4,320c-0.1-2.5-0.1-5-0.1-7.4c0-1.5,0-3.1,0-4.6
	l2,0c0,1.5,0,3,0,4.6c0,2.5,0,4.9,0.1,7.4L66.4,320z M68.8,296.1l-2-0.1c0.2-4,0.6-8,1-12l2,0.2C69.4,288.1,69,292.1,68.8,296.1
	L68.8,296.1z M589,283.9c-0.4-3.9-0.9-5.9-1.5-9.8l2-0.3c0.6,4,1.1,7,1.5,10.9L589,283.9z M71.3,272.3l-2-0.3
	c0.6-4,1.3-7.9,2.1-11.9l2,0.4C72.7,264.4,71.9,268.4,71.3,272.3L71.3,272.3z M585.4,262.3c-0.8-3.9-1.6-7.8-2.6-11.7l1.9-0.5
	c0.9,3.9,1.8,7.8,2.6,11.8L585.4,262.3z M76.1,248.9l-1.9-0.5c1-3.9,2-7.8,3.2-11.6l1.9,0.6C78.1,241.2,77,245,76.1,248.9z
	 M579.8,239.1c-1.1-3.8-2.3-7.6-3.6-11.4l1.9-0.7c1.3,3.8,2.5,7.6,3.7,11.5L579.8,239.1z M83,226l-1.9-0.7c1.3-3.8,2.8-7.6,4.3-11.3
	l1.9,0.8C85.7,218.5,84.3,222.2,83,226L83,226z M572,216.5c-1.5-3.7-3-7.4-4.6-11l1.8-0.8c1.6,3.6,3.2,7.4,4.7,11.1L572,216.5z
	 M91.9,203.8l-1.8-0.8c1.7-3.6,3.4-7.3,5.3-10.8l1.8,0.9C95.4,196.6,93.6,200.2,91.9,203.8z M562.2,194.7c-1.8-3.5-3.7-7.1-5.6-10.5
	l1.7-1c2,3.5,3.9,7,5.7,10.6L562.2,194.7z M102.9,182.5l-1.7-1c2-3.5,4.1-6.9,6.3-10.3l1.7,1.1C107,175.6,104.9,179.1,102.9,182.5z
	 M550.5,174c-2.1-3.4-4.3-6.7-6.6-10l1.6-1.1c2.3,3.3,4.5,6.6,6.6,10L550.5,174z M115.8,162.4l-1.6-1.2c2.3-3.3,4.7-6.5,7.2-9.7
	l1.6,1.2C120.5,155.9,118.1,159.1,115.8,162.4z M536.9,154.4c-2.4-3.2-4.9-6.3-7.5-9.3l1.5-1.3c2.6,3.1,5.1,6.2,7.5,9.4L536.9,154.4
	z M130.4,143.5l-1.5-1.3c2.6-3,5.3-6.1,8-9l1.5,1.4C135.7,137.4,133,140.5,130.4,143.5z M521.5,136.1c-2.7-2.9-5.5-5.8-8.3-8.6
	l1.4-1.4c2.8,2.8,5.6,5.7,8.3,8.7L521.5,136.1z M146.7,126l-1.4-1.4c2.9-2.8,5.8-5.6,8.8-8.2l1.3,1.5
	C152.5,120.5,149.6,123.2,146.7,126L146.7,126z M504.6,119.2c-2.9-2.7-6-5.3-9-7.8l1.3-1.5c3.1,2.5,6.1,5.2,9.1,7.9L504.6,119.2z
	 M164.6,110.1l-1.3-1.6c3.1-2.5,6.3-5,9.5-7.4l1.2,1.6C170.8,105.1,167.6,107.6,164.6,110.1L164.6,110.1z M183.7,95.9l-1.1-1.7
	c3.3-2.2,6.7-4.4,10.1-6.5l1,1.7C190.4,91.5,187,93.7,183.7,95.9z M204.1,83.5l-1-1.8c3.5-1.9,7.1-3.8,10.7-5.5l0.9,1.8
	C211.2,79.7,207.6,81.6,204.1,83.5L204.1,83.5z M445.5,78.8c-3.6-1.8-7.2-3.5-10.8-5.1l0.8-1.8c3.7,1.6,7.3,3.3,10.9,5.1L445.5,78.8
	z M225.6,73l-0.8-1.8c3.7-1.6,7.4-3.1,11.1-4.5l0.7,1.9C232.9,69.9,229.2,71.4,225.6,73L225.6,73z M423.6,69.2
	c-3.7-1.4-7.5-2.8-11.3-4.1l0.6-1.9c3.8,1.3,7.6,2.7,11.4,4.1L423.6,69.2z M247.9,64.5l-0.6-1.9c3.8-1.2,7.7-2.4,11.5-3.5l0.5,1.9
	C255.5,62.1,251.6,63.3,247.9,64.5z M400.9,61.5c-3.8-1.1-7.7-2.1-11.6-3l0.5-1.9c3.9,0.9,7.8,1.9,11.7,3L400.9,61.5z M270.9,58.1
	l-0.4-1.9c3.9-0.9,7.9-1.7,11.8-2.4l0.4,2C278.7,56.4,274.8,57.2,270.9,58.1z M377.7,56.1c-3.9-0.7-7.9-1.4-11.8-1.9l0.3-2
	c4,0.6,8,1.2,11.9,1.9L377.7,56.1z M294.4,53.9l-0.3-2c4-0.5,8-1,12-1.3l0.2,2C302.3,52.9,298.3,53.4,294.4,53.9z M354,52.7
	c-3.9-0.4-7.9-0.7-11.9-0.8l0.1-2c4,0.2,8,0.5,12,0.9L354,52.7z M318.2,51.8l-0.1-2c3.7-0.2,7.4-0.2,11.1-0.2l0.9,0l0,2l-0.9,0
	C325.6,51.6,321.8,51.7,318.2,51.8z"/>
<path class="st1" d="M778.5,233.4l-5,34c0,0-22,44-8,89l18-11c0,0,14-54,14-58s6-51,6-51L778.5,233.4z"/>
<path class="st2" d="M788.5,342.4l-24,16l12,59c0,0,3,80,2,83s-19,125-19,125s21,10,40,4c0,0,19-90,19-116l22-91l34,104
	c0,0,2,70,6,93s4,26,4,26s32,9,40,0c0,0-4-118-7-130l-7-143L788.5,342.4z"/>
<path class="st2" d="M767.5,625.4c0,0-2-3-8,5s-25,23-25,23s-52,37-13,39s46-18,46-18s33-6,34-13s-4-35-4-35L767.5,625.4z"/>
<path class="st2" d="M886.5,643.4c0,0-7,24-5,34s-4,47,24,44s19-35,19-35l-9-41L886.5,643.4z"/>
<circle class="st1" cx="847" cy="86.9" r="33"/>
<path class="st1" d="M827.5,104.4c0,0,10,35,2,48s54,2,58-10c0,0-20-22-17-43L827.5,104.4z"/>
<path class="st3" d="M843.5,151.4c0,0,27.4,1.9,40.7-13.1l49.3,21.1l-21,116c0,0,42,98,4,107s-148,0-143-33s25-73,25-73s5-44-6-64
	s-4-43-4-43l44-29.2C832.5,140.2,834.5,151.4,843.5,151.4z"/>
<path class="st3" d="M800.5,170.4h-12c0,0-14,3-11,41l-7,27c0,0,35,9,40,4S800.5,170.4,800.5,170.4z"/>
<path class="st1" d="M945.5,230.4l-4,35c0,0,5,46-12,82l-6,18c0,0-6,52-22,52s0-59,0-59l8-59c0,0,6-23,2-33s-5-31-5-31L945.5,230.4z
	"/>
<path class="st2" d="M838.9,65.3c4.9-0.8,9.8-1.3,14.8-1.5c3.6-0.2,7.3-0.1,10.6,1.4c4.9,2.3,7.6,7.6,9.4,12.7s3.1,10.6,6.4,14.8
	c5.5-5.8,6.6-14.4,7.5-22.3c0.6-5.6,1.1-11.6-1.5-16.6c-1.6-3.1-4.2-5.5-6.9-7.7c-12.7-10.6-28.9-18.9-45.3-16.5l-0.4,2.5
	c-2.8-0.1-5.6,0.1-8.4,0.5l0.6,6.3l-8.7,0.6l-0.3,6.5l-8.8,0.3c0.2,2.5,1.3,4.9,3.1,6.6c-1.4,1-2.9,1.7-4.5,2
	c1.5,5.7,2.9,11.4,4.4,17c1.1,4.2,0.9,7.9,5.4,5.8c3.4-1.6,5.7-6.5,9.2-8.5C829.4,67,834.2,66,838.9,65.3z"/>
<path class="st3" d="M919.5,160.4h14c0,0,23,77,19,78s-51,4-51,4L919.5,160.4z"/>
<circle class="st4" cx="324" cy="307.9" r="81"/>
<polygon class="st5" points="375,299.9 332,299.9 332,256.9 316,256.9 316,299.9 273,299.9 273,315.9 316,315.9 316,358.9 
	332,358.9 332,315.9 375,315.9 "/>
<rect x="71.6" y="444.7" class="st6" width="110.2" height="128.3"/>
<path class="st0" d="M224.5,574.1h-154v-154h154V574.1z M72.7,572h149.7V422.2H72.7V572z"/>
<rect x="102.6" y="465" class="st0" width="94.1" height="2.1"/>
<rect x="102.6" y="488.5" class="st0" width="94.1" height="2.1"/>
<rect x="102.6" y="512.1" class="st0" width="94.1" height="2.1"/>
<rect x="224.8" y="22.8" class="st6" width="222" height="110.2"/>
<path class="st0" d="M491.8,134h-268V0h268V134z M225.8,132h264V2h-264V132z"/>
<rect x="263.8" y="55.9" class="st0" width="143.9" height="2"/>
<rect x="263.8" y="76.9" class="st0" width="143.9" height="2"/>
<rect x="263.8" y="97.9" class="st0" width="143.9" height="2"/>
<rect x="530" y="300.9" class="st6" width="95" height="101"/>
<path class="st0" d="M649,402.9H529v-120h120V402.9z M531,400.9h116v-116H531V400.9z"/>
<rect x="544.5" y="337.4" class="st0" width="66" height="2"/>
<rect x="544.5" y="350.4" class="st0" width="66" height="2"/>
<rect x="544.5" y="363.4" class="st0" width="66" height="2"/>
<rect x="129" y="132" class="st0" width="457.5" height="2"/>
<rect x="463.5" y="400.9" class="st0" width="251" height="2"/>
<rect y="572.9" class="st0" width="295.1" height="2"/>
</svg>
