<?xml version="1.0" encoding="utf-8"?>
<!-- Generator: Adobe Illustrator 23.0.1, SVG Export Plug-In . SVG Version: 6.00 Build 0)  -->
<svg version="1.1" id="b56ce292-c2ef-482a-b84e-c8d73988b32f"
	 xmlns="http://www.w3.org/2000/svg" xmlns:xlink="http://www.w3.org/1999/xlink" x="0px" y="0px" viewBox="0 0 888 572"
	 style="enable-background:new 0 0 888 572;" xml:space="preserve">
<style type="text/css">
	.st0{fill:#E6E6E6;}
	.st1{fill:#3F3D56;}
	.st2{fill:#09BB00;}
	.st3{fill:#2F2E41;}
	.st4{fill:#FFB9B9;}
	.st5{fill:#FF6584;}
	.st6{opacity:0.1;enable-background:new    ;}
	.st7{opacity:0.2;enable-background:new    ;}
</style>
<title>investment_data</title>
<rect x="39.5" y="318.7" class="st0" width="6" height="5"/>
<path class="st0" d="M613,323.7h-11.8v-5H613V323.7z M589.4,323.7h-11.8v-5h11.8V323.7z M565.7,323.7h-11.8v-5h11.8V323.7z
	 M542.1,323.7h-11.8v-5h11.8V323.7z M518.4,323.7h-11.8v-5h11.8V323.7z M494.8,323.7H483v-5h11.8L494.8,323.7z M471.1,323.7h-11.8
	v-5h11.8V323.7z M447.5,323.7h-11.8v-5h11.8V323.7z M423.9,323.7H412v-5h11.8V323.7z M400.2,323.7h-11.8v-5h11.8V323.7z
	 M376.6,323.7h-11.8v-5h11.8V323.7z M352.9,323.7h-11.8v-5h11.8L352.9,323.7z M329.3,323.7h-11.8v-5h11.8L329.3,323.7z M305.6,323.7
	h-11.8v-5h11.8L305.6,323.7z M282,323.7h-11.8v-5H282L282,323.7z M258.3,323.7h-11.8v-5h11.8L258.3,323.7z M234.7,323.7h-11.8v-5
	h11.8L234.7,323.7z M211,323.7h-11.8v-5H211L211,323.7z M187.4,323.7h-11.8v-5h11.8L187.4,323.7z M163.7,323.7h-11.8v-5h11.8
	L163.7,323.7z M140.1,323.7h-11.8v-5h11.8L140.1,323.7z M116.4,323.7h-11.8v-5h11.8L116.4,323.7z M92.8,323.7H81v-5h11.8L92.8,323.7
	z M69.1,323.7H57.3v-5h11.8L69.1,323.7z"/>
<rect x="39.5" y="191.7" class="st0" width="6" height="5"/>
<path class="st0" d="M613,196.7h-11.8v-5H613V196.7z M589.4,196.7h-11.8v-5h11.8V196.7z M565.7,196.7h-11.8v-5h11.8V196.7z
	 M542.1,196.7h-11.8v-5h11.8V196.7z M518.4,196.7h-11.8v-5h11.8V196.7z M494.8,196.7H483v-5h11.8L494.8,196.7z M471.1,196.7h-11.8
	v-5h11.8V196.7z M447.5,196.7h-11.8v-5h11.8V196.7z M423.9,196.7H412v-5h11.8V196.7z M400.2,196.7h-11.8v-5h11.8V196.7z
	 M376.6,196.7h-11.8v-5h11.8V196.7z M352.9,196.7h-11.8v-5h11.8L352.9,196.7z M329.3,196.7h-11.8v-5h11.8L329.3,196.7z M305.6,196.7
	h-11.8v-5h11.8L305.6,196.7z M282,196.7h-11.8v-5H282L282,196.7z M258.3,196.7h-11.8v-5h11.8L258.3,196.7z M234.7,196.7h-11.8v-5
	h11.8L234.7,196.7z M211,196.7h-11.8v-5H211L211,196.7z M187.4,196.7h-11.8v-5h11.8L187.4,196.7z M163.7,196.7h-11.8v-5h11.8
	L163.7,196.7z M140.1,196.7h-11.8v-5h11.8L140.1,196.7z M116.4,196.7h-11.8v-5h11.8L116.4,196.7z M92.8,196.7H81v-5h11.8L92.8,196.7
	z M69.1,196.7H57.3v-5h11.8L69.1,196.7z"/>
<rect x="39.5" y="64.7" class="st0" width="6" height="5"/>
<path class="st0" d="M613,69.7h-11.8v-5H613V69.7z M589.4,69.7h-11.8v-5h11.8V69.7z M565.7,69.7h-11.8v-5h11.8V69.7z M542.1,69.7
	h-11.8v-5h11.8V69.7z M518.4,69.7h-11.8v-5h11.8V69.7z M494.8,69.7H483v-5h11.8L494.8,69.7z M471.1,69.7h-11.8v-5h11.8V69.7z
	 M447.5,69.7h-11.8v-5h11.8V69.7z M423.9,69.7H412v-5h11.8V69.7z M400.2,69.7h-11.8v-5h11.8V69.7z M376.6,69.7h-11.8v-5h11.8V69.7z
	 M352.9,69.7h-11.8v-5h11.8L352.9,69.7z M329.3,69.7h-11.8v-5h11.8L329.3,69.7z M305.6,69.7h-11.8v-5h11.8L305.6,69.7z M282,69.7
	h-11.8v-5H282L282,69.7z M258.3,69.7h-11.8v-5h11.8L258.3,69.7z M234.7,69.7h-11.8v-5h11.8L234.7,69.7z M211,69.7h-11.8v-5H211
	L211,69.7z M187.4,69.7h-11.8v-5h11.8L187.4,69.7z M163.7,69.7h-11.8v-5h11.8L163.7,69.7z M140.1,69.7h-11.8v-5h11.8L140.1,69.7z
	 M116.4,69.7h-11.8v-5h11.8L116.4,69.7z M92.8,69.7H81v-5h11.8L92.8,69.7z M69.1,69.7H57.3v-5h11.8L69.1,69.7z"/>
<rect x="186" y="320.2" class="st1" width="49" height="180"/>
<rect x="195" y="320.2" class="st2" width="49" height="180"/>
<rect x="302" y="193.2" class="st1" width="49" height="307"/>
<rect x="311" y="193.2" class="st2" width="49" height="307"/>
<rect x="418" y="66.2" class="st1" width="49" height="434"/>
<rect x="427" y="66.2" class="st2" width="49" height="434"/>
<circle class="st0" cx="40" cy="67.2" r="12"/>
<circle class="st0" cx="40" cy="194.2" r="12"/>
<circle class="st0" cx="40" cy="321.2" r="12"/>
<rect y="499.1" class="st1" width="888" height="2.2"/>
<circle class="st3" cx="756.3" cy="59.8" r="34"/>
<path class="st4" d="M674,283.8l-1.8,11c0,0-10.1,37.7,2.8,35.9s8.3-34,8.3-34l1.8-10.1L674,283.8z"/>
<path class="st3" d="M787.6,231.8h-74.5c0,0-21.2,33.1-12.9,91.1s4.6,187.7,4.6,187.7h28.5l19.3-203.3l40.5,203.3l26.7-2.8
	l-14.7-234.6L787.6,231.8z"/>
<path class="st3" d="M712.6,507.3l-0.9,34c0,0-12,34,5.5,30.4c17.5-3.7,19.3-11,19.3-13.8s-4.6-50.6-4.6-50.6H712.6z"/>
<path class="st3" d="M815.1,504.8l5.3,36.4c0,0,16.2,32.2-1.6,30.8s-20.6-8.5-20.9-11.2c-0.4-2.7-1.9-53.5-1.9-53.5L815.1,504.8z"/>
<circle class="st4" cx="756.8" cy="68.5" r="24.8"/>
<polygon class="st4" points="775.7,79.1 785.8,114.1 765.5,134.3 754.5,115 750.8,87.4 "/>
<path class="st5" d="M784.4,102.6c0,0-1.4-9.3-4.4-8.3s-29.7,7.4-29.7,10.2v12l-22.1,85.6l-5.5,35l58-0.9l9.2-121.4L784.4,102.6z"/>
<path class="st3" d="M779.3,92.9l6.4,1.8l10.6,10.6c0,0,25.8-4.6,29.4,7.4s-20.2,161-20.2,161s-40.5,13.8-46.9-21.2
	s-6-64.9,6.9-86.9S779.3,92.9,779.3,92.9z"/>
<path class="st3" d="M752.7,101.1L749,103l-3.2,14.3c0,0-26.7,7.4-28.5,17.5s0.9,65.3,0.9,65.3s-25.8,52.4-21.2,74.5
	c0,0,11,9.2,19.3-2.8s28.5-83.7,29.4-88.3S756.8,102.4,752.7,101.1z"/>
<polygon class="st3" points="727.4,131.1 717.5,133.8 710.8,153.2 697,202.8 670.3,284.7 688.7,293 718.2,233.2 "/>
<path class="st3" d="M775.7,65.3c-15.8-5.7-21.2-9.2-38.6,0l-6.4-25.8h51.5L775.7,65.3z"/>
<circle class="st3" cx="753.6" cy="23.9" r="19.3"/>
<path class="st3" d="M730.6,19.3C730.6,9,738.7,0.5,749,0c-0.3,0-0.6,0-0.9,0c-10.7,0-19.3,8.6-19.3,19.3c0,10.7,8.6,19.3,19.3,19.3
	c0.3,0,0.6,0,0.9,0C738.7,38.1,730.6,29.6,730.6,19.3z"/>
<rect x="715.6" y="287.1" class="st2" width="71.8" height="30.5"/>
<rect x="715.6" y="287.1" class="st6" width="71.8" height="30.5"/>
<circle class="st7" cx="751.5" cy="302.4" r="8.4"/>
<polygon class="st7" points="732.4,315.4 718.7,315.4 718.7,289.4 733.2,289.4 733.2,290.9 720.2,290.9 720.2,313.8 732.4,313.8 "/>
<polygon class="st7" points="784.3,315.4 770.6,315.4 770.6,313.8 782.8,313.8 782.8,290.9 769.8,290.9 769.8,289.4 784.3,289.4 "/>
<rect x="712.9" y="300" transform="matrix(0.9545 -0.2981 0.2981 0.9545 -59.9322 237.5036)" class="st2" width="71.8" height="30.5"/>
<circle class="st7" cx="748.7" cy="315.3" r="8.4"/>
<polygon class="st7" points="734.4,333.3 721.3,337.4 713.5,312.6 727.4,308.3 727.8,309.8 715.5,313.7 722.3,335.5 733.9,331.9 "/>
<polygon class="st7" points="783.9,317.9 770.8,322 770.4,320.5 782,316.9 775.2,295 762.8,298.9 762.4,297.4 776.2,293.1 "/>
<path class="st4" d="M787.3,268.6l-4.2,10.4c0,0-11.1,37.4-21.1,29.1s10.8-33.3,10.8-33.3l3.7-9.6L787.3,268.6z"/>
<path class="st3" d="M812.9,115.5l12.9-2.8c1.8,5.4,3.3,11,4.4,16.6c1.8,9.2-1,81.9-2.8,89.2s-35.2,56.4-35.2,56.4l-30-6.5
	l43.4-65.5L812.9,115.5z"/>
<polygon class="st7" points="806,162.2 798,206.2 768,267.2 795,203.2 "/>
</svg>
